<?xml version="1.0" encoding="utf-8"?>
<!-- Generator: Adobe Illustrator 26.3.1, SVG Export Plug-In . SVG Version: 6.00 Build 0)  -->
<svg version="1.1" id="Layer_1" xmlns="http://www.w3.org/2000/svg" xmlns:xlink="http://www.w3.org/1999/xlink" x="0px" y="0px"
	 viewBox="0 0 1496 184" style="enable-background:new 0 0 1496 184;" xml:space="preserve">
<style type="text/css">
	.st0{fill:none;stroke:#8F0E30;stroke-opacity:0.5;}
</style>
<path class="st0" d="M681.5,104.4c0,22.2,7.5,41.9,22.2,56c14.7,14.1,36.5,22.6,64.8,22.6c57.6,1,102.9-45.6,101.9-103.9
	 M681.5,104.4C681.5,104.4,681.5,104.4,681.5,104.4l0.5,0 M681.5,104.4C681.5,104.4,681.5,104.4,681.5,104.4l0.5,0 M681.5,104.4
	c-1-57.8,44.9-104.7,102.4-103.9c28,0,49.6,8.5,64.3,22.6c14.6,14.1,22.3,33.8,22.3,56 M870.5,79.1
	C870.5,79.1,870.5,79.1,870.5,79.1l-0.5,0L870.5,79.1C870.5,79.1,870.5,79.1,870.5,79.1z M889.5,104.4c0,22.2,7.5,41.9,22.2,56
	c14.7,14.1,36.5,22.6,64.8,22.6c57.6,1,102.9-45.6,101.9-103.9 M889.5,104.4C889.5,104.4,889.5,104.4,889.5,104.4l0.5,0
	 M889.5,104.4C889.5,104.4,889.5,104.4,889.5,104.4l0.5,0 M889.5,104.4C888.5,46.6,934.4-0.2,992,0.5c28,0,49.6,8.5,64.3,22.6
	c14.7,14.1,22.3,33.8,22.3,56 M1078.5,79.1C1078.5,79.1,1078.5,79.1,1078.5,79.1l-0.5,0L1078.5,79.1
	C1078.5,79.1,1078.5,79.1,1078.5,79.1z M1097.6,104.4c0,22.2,7.6,41.9,22.2,56c14.7,14.1,36.4,22.6,64.8,22.6
	c57.6,1,102.9-45.6,101.9-103.9 M1097.6,104.4L1097.6,104.4l0.5,0 M1097.6,104.4C1097.6,104.4,1097.6,104.4,1097.6,104.4l0.5,0
	 M1097.6,104.4c-1-57.8,44.9-104.7,102.4-103.9c28,0,49.7,8.5,64.3,22.6c14.6,14.1,22.3,33.8,22.3,56 M1286.6,79.1
	C1286.6,79.1,1286.6,79.1,1286.6,79.1l-0.5,0L1286.6,79.1C1286.6,79.1,1286.6,79.1,1286.6,79.1z M1305.6,104.4
	c0,22.2,7.6,41.9,22.2,56 M1305.6,104.4L1305.6,104.4l0.5,0 M1305.6,104.4C1305.6,104.4,1305.6,104.4,1305.6,104.4l0.5,0
	 M1305.6,104.4c-1-57.8,44.9-104.7,102.4-103.9c28,0,49.6,8.5,64.3,22.6c14.7,14.1,22.3,33.8,22.3,56 M1327.8,160.4
	c14.7,14.1,36.5,22.6,64.8,22.6 M1392.7,182.5 M1494.6,79.1C1494.6,79.1,1494.6,79.1,1494.6,79.1l-0.5,0 M1494.6,79.1
	C1494.6,79.1,1494.6,79.1,1494.6,79.1l-0.5,0 M1494.6,79.1c1,58.3-44.4,104.9-101.9,103.9 M1392.7,183L1392.7,183v-0.5 M1392.7,183
	L1392.7,183v-0.5 M1.5,178.5l-0.1,0.6H2h37.2h0.4l0.1-0.4l14.1-65.6h75.5h0.4l0.1-0.4l6.4-31.2l0.1-0.6h-0.6H60.4l9.5-44.1h94.3h0.4
	l0.1-0.4l6.7-31.2l0.1-0.6h-0.6H39h-0.4l-0.1,0.4L1.5,178.5z M253.3,178.6l0.1,0.4h0.4H293h0.6l-0.1-0.6L265.2,4.9l-0.1-0.4h-0.4
	h-48.4h-0.3l-0.1,0.2L113.5,178.3l-0.4,0.8h0.9h42.2h0.3l0.1-0.3l22.2-40.4h69.4L253.3,178.6z M243.8,106.2h-47.4l17.7-32.2l0,0
	c8.1-15.1,13.1-29.6,16.3-47.4H243c-2.9,12.4-4.3,22.2-4.3,33c0,5.7,0.5,11.2,1.2,16.9v0L243.8,106.2z M315.4,178.5l-0.1,0.6h0.6
	h37.4h0.4l0.1-0.4l18.4-87.5c1.7-8,2.5-15.4,2.5-22.4c0-13.5-2.9-24.2-7.1-34.9l11.7-5.1l59.1,150.1l0.1,0.3h0.3h43.4h0.4l0.1-0.4
	l37-173.6l0.1-0.6h-0.6h-37.4h-0.4l-0.1,0.4l-14.9,69.9l0,0c-1.7,8.7-2.7,16.4-2.7,23.4c0,12.5,2.9,22.7,6.8,32.2l-12,5.8L406.4,4.8
	l-0.1-0.3h-0.3h-53.1h-0.4l-0.1,0.4L315.4,178.5z M564.8,178.5l-0.1,0.6h0.6h37.2h0.4l0.1-0.4l30.2-142h58.6h0.4l0.1-0.4L699,5.1
	l0.1-0.6h-0.6H543.2h-0.4l-0.1,0.4l-6.7,31.2l-0.1,0.6h0.6H595L564.8,178.5z M830.3,78.6L830.3,78.6c0.5,37.5-25.7,73.1-61.7,72.2h0
	c-14.6,0-26.3-4.9-34.3-13c-8-8.2-12.3-19.7-12.3-33.1v0c-0.5-37.5,25.9-72.6,62-71.9h0c14.8,0,26.3,4.9,34.2,13
	C826.1,53.9,830.3,65.3,830.3,78.6z M1038.3,78.6L1038.3,78.6c0.5,37.5-25.7,73.1-61.7,72.2h0c-14.6,0-26.3-4.9-34.3-13
	c-8-8.2-12.3-19.7-12.3-33.1v0c-0.5-37.5,25.9-72.6,62-71.9h0c14.8,0,26.3,4.9,34.2,13C1034.1,53.9,1038.3,65.3,1038.3,78.6z
	 M1246.4,78.6L1246.4,78.6c0.5,37.5-25.7,73.1-61.7,72.2h0c-14.6,0-26.3-4.9-34.3-13c-8-8.2-12.4-19.7-12.4-33.1v0
	c-0.5-37.5,25.9-72.6,62-71.9h0c14.8,0,26.3,4.9,34.2,13C1242.1,53.9,1246.4,65.3,1246.4,78.6z M1454.4,78.6L1454.4,78.6
	c0.5,37.5-25.7,73.1-61.7,72.2h0c-14.6,0-26.3-4.9-34.3-13c-8-8.2-12.3-19.7-12.3-33.1v0c-0.5-37.5,25.9-72.6,62-71.9h0
	c14.8,0,26.3,4.9,34.2,13C1450.2,53.9,1454.4,65.3,1454.4,78.6z"/>
</svg>
